<svg style="width: 0; height:0; visibility: hidden;" xmlns="http://www.w3.org/2000/svg">
    <symbol>
        <g>

        </g>
    </symbol>
    <symbol id="baks" viewBox="0 0 36 33">
        <path xmlns="http://www.w3.org/2000/svg"
              d="M19.5156 24.2188C18.4844 24.2188 17.5677 24.0729 16.7656 23.7812C15.974 23.4792 15.3281 23.0781 14.8281 22.5781C14.3385 22.0781 14.026 21.5312 13.8906 20.9375C13.7969 20.4583 13.8542 20.0625 14.0625 19.75C14.2812 19.4271 14.6042 19.2656 15.0312 19.2656C15.2708 19.2656 15.5 19.3333 15.7188 19.4688C15.9375 19.6042 16.1094 19.8073 16.2344 20.0781C16.5052 20.7448 16.9062 21.2396 17.4375 21.5625C17.9792 21.8854 18.6771 22.0469 19.5312 22.0469C20.4583 22.0469 21.1979 21.8698 21.75 21.5156C22.3125 21.151 22.5938 20.6615 22.5938 20.0469C22.5938 19.526 22.4167 19.1198 22.0625 18.8281C21.7083 18.5365 21.1198 18.2917 20.2969 18.0938L18.0625 17.5781C16.6667 17.2656 15.625 16.7812 14.9375 16.125C14.2604 15.4688 13.9219 14.6146 13.9219 13.5625C13.9219 12.7188 14.151 11.974 14.6094 11.3281C15.0781 10.6719 15.724 10.1615 16.5469 9.79688C17.3698 9.43229 18.3229 9.25 19.4062 9.25C20.3958 9.25 21.2552 9.41146 21.9844 9.73438C22.724 10.0573 23.3229 10.4688 23.7812 10.9688C24.2396 11.4688 24.5417 11.9844 24.6875 12.5156C24.8229 12.9844 24.7865 13.3906 24.5781 13.7344C24.3698 14.0781 24.0469 14.25 23.6094 14.25C23.3698 14.25 23.1406 14.1823 22.9219 14.0469C22.7135 13.9115 22.5365 13.6979 22.3906 13.4062C22.1094 12.7396 21.724 12.2448 21.2344 11.9219C20.7448 11.599 20.1302 11.4375 19.3906 11.4375C18.5469 11.4375 17.8646 11.6198 17.3438 11.9844C16.8229 12.349 16.5625 12.8333 16.5625 13.4375C16.5625 13.9167 16.75 14.3073 17.125 14.6094C17.5 14.9115 18.1042 15.1615 18.9375 15.3594L21.1719 15.875C22.6406 16.2188 23.6927 16.6979 24.3281 17.3125C24.974 17.9271 25.2969 18.7656 25.2969 19.8281C25.2969 20.6927 25.0469 21.4583 24.5469 22.125C24.0573 22.7812 23.375 23.2969 22.5 23.6719C21.6354 24.0365 20.6406 24.2188 19.5156 24.2188ZM18.5938 25.6719V7.78125C18.5938 7.53125 18.6823 7.31771 18.8594 7.14062C19.0469 6.95312 19.2708 6.85938 19.5312 6.85938C19.7812 6.85938 20 6.95312 20.1875 7.14062C20.375 7.31771 20.4688 7.53125 20.4688 7.78125V25.6719C20.4688 25.9219 20.375 26.1406 20.1875 26.3281C20 26.5156 19.7812 26.6094 19.5312 26.6094C19.2708 26.6094 19.0469 26.5156 18.8594 26.3281C18.6823 26.1406 18.5938 25.9219 18.5938 25.6719ZM19.5312 32.8594C17.8438 32.8594 16.2083 32.5938 14.625 32.0625C13.0521 31.5417 11.599 30.8021 10.2656 29.8438C8.94271 28.8958 7.79688 27.7969 6.82812 26.5469C6.48438 26.1302 6.33854 25.6979 6.39062 25.25C6.44271 24.8021 6.64583 24.4479 7 24.1875C7.38542 23.9167 7.78646 23.8281 8.20312 23.9219C8.61979 24.0156 8.98958 24.2448 9.3125 24.6094C10.0938 25.6406 11.0104 26.5365 12.0625 27.2969C13.125 28.0469 14.2812 28.625 15.5312 29.0312C16.7917 29.4479 18.125 29.6615 19.5312 29.6719C21.3229 29.6823 23 29.349 24.5625 28.6719C26.1354 28.0052 27.5104 27.0833 28.6875 25.9062C29.875 24.7188 30.8021 23.3438 31.4688 21.7812C32.1458 20.2083 32.4844 18.5208 32.4844 16.7188C32.4844 14.9271 32.1458 13.25 31.4688 11.6875C30.8021 10.1146 29.875 8.73958 28.6875 7.5625C27.5104 6.375 26.1354 5.44792 24.5625 4.78125C23 4.11458 21.3229 3.78125 19.5312 3.78125C17.7292 3.78125 16.0469 4.11458 14.4844 4.78125C12.9323 5.4375 11.5625 6.35417 10.375 7.53125C9.1875 8.70833 8.25521 10.0781 7.57812 11.6406C6.91146 13.1927 6.57292 14.8646 6.5625 16.6562H3.375C3.38542 14.4479 3.8125 12.375 4.65625 10.4375C5.5 8.5 6.66667 6.79167 8.15625 5.3125C9.64583 3.83333 11.3594 2.67708 13.2969 1.84375C15.2448 1 17.3229 0.578125 19.5312 0.578125C21.7396 0.578125 23.8177 1 25.7656 1.84375C27.7135 2.6875 29.4271 3.85417 30.9062 5.34375C32.3958 6.82292 33.5625 8.53646 34.4062 10.4844C35.25 12.4323 35.6719 14.5104 35.6719 16.7188C35.6719 18.9271 35.25 21.0052 34.4062 22.9531C33.5625 24.901 32.3958 26.6198 30.9062 28.1094C29.4271 29.599 27.7135 30.7604 25.7656 31.5938C23.8177 32.4375 21.7396 32.8594 19.5312 32.8594ZM1.5 13.5312H9.21875C9.61458 13.5312 9.91146 13.625 10.1094 13.8125C10.3177 13.9896 10.4167 14.2188 10.4062 14.5C10.3958 14.7708 10.2865 15.0625 10.0781 15.375L6.28125 20.6406C6.02083 20.9948 5.71354 21.1771 5.35938 21.1875C5.00521 21.1875 4.69271 21.0052 4.42188 20.6406L0.625 15.375C0.416667 15.0729 0.307292 14.7812 0.296875 14.5C0.286458 14.2188 0.380208 13.9896 0.578125 13.8125C0.786458 13.625 1.09375 13.5312 1.5 13.5312Z"/>
    </symbol>
</svg>